<mxfile host="app.diagrams.net" modified="2024-05-29T04:53:04.057Z" agent="Mozilla/5.0 (X11; Linux x86_64) AppleWebKit/537.36 (KHTML, like Gecko) Chrome/125.0.0.0 Safari/537.36" etag="g1aCJpiGr-oUUcYn-P1y" version="24.4.4" type="github">
  <diagram id="R2lEEEUBdFMjLlhIrx00" name="Page-1">
    <mxGraphModel dx="1509" dy="831" grid="1" gridSize="10" guides="1" tooltips="1" connect="1" arrows="1" fold="1" page="1" pageScale="1" pageWidth="850" pageHeight="1100" math="0" shadow="0" extFonts="Permanent Marker^https://fonts.googleapis.com/css?family=Permanent+Marker">
      <root>
        <mxCell id="0" />
        <mxCell id="1" parent="0" />
        <mxCell id="C-vyLk0tnHw3VtMMgP7b-1" value="" style="edgeStyle=entityRelationEdgeStyle;endArrow=ERoneToMany;startArrow=ERzeroToOne;endFill=0;startFill=0;entryX=0;entryY=0.5;entryDx=0;entryDy=0;" parent="1" source="KZ7H_vDwbbuVYhdhCjJA-1" target="KZ7H_vDwbbuVYhdhCjJA-25" edge="1">
          <mxGeometry width="100" height="100" relative="1" as="geometry">
            <mxPoint x="330" y="880" as="sourcePoint" />
            <mxPoint x="539.9999999999998" y="395" as="targetPoint" />
          </mxGeometry>
        </mxCell>
        <mxCell id="C-vyLk0tnHw3VtMMgP7b-12" value="" style="edgeStyle=entityRelationEdgeStyle;endArrow=ERoneToMany;startArrow=ERoneToMany;endFill=0;startFill=0;entryX=1;entryY=0.5;entryDx=0;entryDy=0;" parent="1" source="KZ7H_vDwbbuVYhdhCjJA-2" target="KZ7H_vDwbbuVYhdhCjJA-7" edge="1">
          <mxGeometry width="100" height="100" relative="1" as="geometry">
            <mxPoint x="390" y="340" as="sourcePoint" />
            <mxPoint x="320" y="250" as="targetPoint" />
          </mxGeometry>
        </mxCell>
        <mxCell id="KZ7H_vDwbbuVYhdhCjJA-3" value="" style="edgeStyle=entityRelationEdgeStyle;endArrow=ERoneToMany;startArrow=ERoneToMany;endFill=0;startFill=0;exitX=0;exitY=0.5;exitDx=0;exitDy=0;" edge="1" parent="1" source="KZ7H_vDwbbuVYhdhCjJA-25" target="KZ7H_vDwbbuVYhdhCjJA-2">
          <mxGeometry width="100" height="100" relative="1" as="geometry">
            <mxPoint x="539.9999999999998" y="355" as="sourcePoint" />
            <mxPoint x="320" y="235" as="targetPoint" />
          </mxGeometry>
        </mxCell>
        <mxCell id="KZ7H_vDwbbuVYhdhCjJA-2" value="Inscripcion" style="shape=rhombus;perimeter=rhombusPerimeter;whiteSpace=wrap;html=1;align=center;" vertex="1" parent="1">
          <mxGeometry x="365" y="260" width="120" height="60" as="geometry" />
        </mxCell>
        <mxCell id="KZ7H_vDwbbuVYhdhCjJA-4" value="" style="edgeStyle=entityRelationEdgeStyle;endArrow=ERoneToMany;startArrow=ERzeroToOne;endFill=0;startFill=0;exitX=1;exitY=0.5;exitDx=0;exitDy=0;" edge="1" parent="1" source="KZ7H_vDwbbuVYhdhCjJA-38" target="KZ7H_vDwbbuVYhdhCjJA-1">
          <mxGeometry width="100" height="100" relative="1" as="geometry">
            <mxPoint x="320" y="515" as="sourcePoint" />
            <mxPoint x="540" y="385" as="targetPoint" />
          </mxGeometry>
        </mxCell>
        <mxCell id="KZ7H_vDwbbuVYhdhCjJA-1" value="Imparte" style="shape=rhombus;perimeter=rhombusPerimeter;whiteSpace=wrap;html=1;align=center;" vertex="1" parent="1">
          <mxGeometry x="365" y="420" width="120" height="60" as="geometry" />
        </mxCell>
        <mxCell id="KZ7H_vDwbbuVYhdhCjJA-7" value="Estudiante" style="ellipse;whiteSpace=wrap;html=1;align=center;" vertex="1" parent="1">
          <mxGeometry x="190" y="210" width="100" height="40" as="geometry" />
        </mxCell>
        <mxCell id="KZ7H_vDwbbuVYhdhCjJA-13" style="edgeStyle=orthogonalEdgeStyle;rounded=1;orthogonalLoop=1;jettySize=auto;html=1;exitX=1;exitY=0.5;exitDx=0;exitDy=0;entryX=0;entryY=0.5;entryDx=0;entryDy=0;endArrow=none;endFill=0;curved=0;" edge="1" parent="1" source="KZ7H_vDwbbuVYhdhCjJA-8" target="KZ7H_vDwbbuVYhdhCjJA-7">
          <mxGeometry relative="1" as="geometry" />
        </mxCell>
        <mxCell id="KZ7H_vDwbbuVYhdhCjJA-8" value="numeroExpediente" style="ellipse;whiteSpace=wrap;html=1;align=center;fontStyle=4;" vertex="1" parent="1">
          <mxGeometry x="20" y="120" width="100" height="40" as="geometry" />
        </mxCell>
        <mxCell id="KZ7H_vDwbbuVYhdhCjJA-15" style="edgeStyle=orthogonalEdgeStyle;rounded=1;orthogonalLoop=1;jettySize=auto;html=1;exitX=1;exitY=0.5;exitDx=0;exitDy=0;entryX=0;entryY=0.5;entryDx=0;entryDy=0;endArrow=none;endFill=0;curved=0;" edge="1" parent="1" source="KZ7H_vDwbbuVYhdhCjJA-9" target="KZ7H_vDwbbuVYhdhCjJA-7">
          <mxGeometry relative="1" as="geometry" />
        </mxCell>
        <mxCell id="KZ7H_vDwbbuVYhdhCjJA-9" value="apellidos" style="ellipse;whiteSpace=wrap;html=1;align=center;" vertex="1" parent="1">
          <mxGeometry x="20" y="220" width="100" height="40" as="geometry" />
        </mxCell>
        <mxCell id="KZ7H_vDwbbuVYhdhCjJA-10" value="fechaNacimiento" style="ellipse;whiteSpace=wrap;html=1;align=center;" vertex="1" parent="1">
          <mxGeometry x="20" y="270" width="100" height="40" as="geometry" />
        </mxCell>
        <mxCell id="KZ7H_vDwbbuVYhdhCjJA-14" style="edgeStyle=orthogonalEdgeStyle;rounded=1;orthogonalLoop=1;jettySize=auto;html=1;exitX=1;exitY=0.5;exitDx=0;exitDy=0;endArrow=none;endFill=0;curved=0;" edge="1" parent="1" source="KZ7H_vDwbbuVYhdhCjJA-12" target="KZ7H_vDwbbuVYhdhCjJA-7">
          <mxGeometry relative="1" as="geometry" />
        </mxCell>
        <mxCell id="KZ7H_vDwbbuVYhdhCjJA-12" value="nombre" style="ellipse;whiteSpace=wrap;html=1;align=center;" vertex="1" parent="1">
          <mxGeometry x="20" y="170" width="100" height="40" as="geometry" />
        </mxCell>
        <mxCell id="KZ7H_vDwbbuVYhdhCjJA-16" style="edgeStyle=orthogonalEdgeStyle;rounded=1;orthogonalLoop=1;jettySize=auto;html=1;exitX=1;exitY=0.5;exitDx=0;exitDy=0;endArrow=none;endFill=0;entryX=0;entryY=0.5;entryDx=0;entryDy=0;curved=0;" edge="1" parent="1" source="KZ7H_vDwbbuVYhdhCjJA-10" target="KZ7H_vDwbbuVYhdhCjJA-7">
          <mxGeometry relative="1" as="geometry">
            <mxPoint x="170" y="220" as="targetPoint" />
          </mxGeometry>
        </mxCell>
        <mxCell id="KZ7H_vDwbbuVYhdhCjJA-18" style="edgeStyle=orthogonalEdgeStyle;rounded=0;orthogonalLoop=1;jettySize=auto;html=1;exitX=0.5;exitY=1;exitDx=0;exitDy=0;entryX=0.5;entryY=0;entryDx=0;entryDy=0;endArrow=none;endFill=0;" edge="1" parent="1" source="KZ7H_vDwbbuVYhdhCjJA-17" target="KZ7H_vDwbbuVYhdhCjJA-2">
          <mxGeometry relative="1" as="geometry" />
        </mxCell>
        <mxCell id="KZ7H_vDwbbuVYhdhCjJA-17" value="registroInscripcion" style="ellipse;whiteSpace=wrap;html=1;align=center;" vertex="1" parent="1">
          <mxGeometry x="375" y="180" width="100" height="40" as="geometry" />
        </mxCell>
        <mxCell id="KZ7H_vDwbbuVYhdhCjJA-23" style="edgeStyle=orthogonalEdgeStyle;rounded=1;orthogonalLoop=1;jettySize=auto;html=1;exitX=0.5;exitY=1;exitDx=0;exitDy=0;entryX=0.5;entryY=0;entryDx=0;entryDy=0;endArrow=none;endFill=0;curved=0;" edge="1" parent="1" source="KZ7H_vDwbbuVYhdhCjJA-21" target="KZ7H_vDwbbuVYhdhCjJA-17">
          <mxGeometry relative="1" as="geometry" />
        </mxCell>
        <mxCell id="KZ7H_vDwbbuVYhdhCjJA-21" value="numeroExpediente" style="ellipse;whiteSpace=wrap;html=1;align=center;fontStyle=4;" vertex="1" parent="1">
          <mxGeometry x="318" y="70" width="100" height="40" as="geometry" />
        </mxCell>
        <mxCell id="KZ7H_vDwbbuVYhdhCjJA-24" style="edgeStyle=orthogonalEdgeStyle;rounded=1;orthogonalLoop=1;jettySize=auto;html=1;exitX=0.5;exitY=1;exitDx=0;exitDy=0;entryX=0.5;entryY=0;entryDx=0;entryDy=0;endArrow=none;endFill=0;curved=0;" edge="1" parent="1" source="KZ7H_vDwbbuVYhdhCjJA-22" target="KZ7H_vDwbbuVYhdhCjJA-17">
          <mxGeometry relative="1" as="geometry" />
        </mxCell>
        <mxCell id="KZ7H_vDwbbuVYhdhCjJA-22" value="idModulo" style="ellipse;whiteSpace=wrap;html=1;align=center;fontStyle=4;" vertex="1" parent="1">
          <mxGeometry x="433" y="70" width="100" height="40" as="geometry" />
        </mxCell>
        <mxCell id="KZ7H_vDwbbuVYhdhCjJA-28" style="edgeStyle=orthogonalEdgeStyle;rounded=1;orthogonalLoop=1;jettySize=auto;html=1;exitX=1;exitY=0.5;exitDx=0;exitDy=0;entryX=0.5;entryY=1;entryDx=0;entryDy=0;endArrow=none;endFill=0;curved=0;" edge="1" parent="1" source="KZ7H_vDwbbuVYhdhCjJA-25" target="KZ7H_vDwbbuVYhdhCjJA-26">
          <mxGeometry relative="1" as="geometry" />
        </mxCell>
        <mxCell id="KZ7H_vDwbbuVYhdhCjJA-29" style="edgeStyle=orthogonalEdgeStyle;rounded=1;orthogonalLoop=1;jettySize=auto;html=1;exitX=1;exitY=0.5;exitDx=0;exitDy=0;entryX=0.5;entryY=0;entryDx=0;entryDy=0;endArrow=none;endFill=0;curved=0;" edge="1" parent="1" source="KZ7H_vDwbbuVYhdhCjJA-25" target="KZ7H_vDwbbuVYhdhCjJA-27">
          <mxGeometry relative="1" as="geometry" />
        </mxCell>
        <mxCell id="KZ7H_vDwbbuVYhdhCjJA-25" value="Modulo" style="ellipse;whiteSpace=wrap;html=1;align=center;" vertex="1" parent="1">
          <mxGeometry x="560" y="360" width="100" height="40" as="geometry" />
        </mxCell>
        <mxCell id="KZ7H_vDwbbuVYhdhCjJA-26" value="idModulo" style="ellipse;whiteSpace=wrap;html=1;align=center;fontStyle=4;" vertex="1" parent="1">
          <mxGeometry x="660" y="320" width="100" height="40" as="geometry" />
        </mxCell>
        <mxCell id="KZ7H_vDwbbuVYhdhCjJA-27" value="nombreModulo" style="ellipse;whiteSpace=wrap;html=1;align=center;" vertex="1" parent="1">
          <mxGeometry x="660" y="400" width="100" height="40" as="geometry" />
        </mxCell>
        <mxCell id="KZ7H_vDwbbuVYhdhCjJA-40" style="edgeStyle=orthogonalEdgeStyle;rounded=1;orthogonalLoop=1;jettySize=auto;html=1;exitX=1;exitY=0.5;exitDx=0;exitDy=0;entryX=0;entryY=0.5;entryDx=0;entryDy=0;curved=0;endArrow=none;endFill=0;" edge="1" parent="1" source="KZ7H_vDwbbuVYhdhCjJA-30" target="KZ7H_vDwbbuVYhdhCjJA-38">
          <mxGeometry relative="1" as="geometry">
            <mxPoint x="139.9655172413793" y="520" as="targetPoint" />
          </mxGeometry>
        </mxCell>
        <mxCell id="KZ7H_vDwbbuVYhdhCjJA-30" value="nombre" style="ellipse;whiteSpace=wrap;html=1;align=center;" vertex="1" parent="1">
          <mxGeometry x="40" y="450" width="100" height="40" as="geometry" />
        </mxCell>
        <mxCell id="KZ7H_vDwbbuVYhdhCjJA-39" style="edgeStyle=orthogonalEdgeStyle;rounded=1;orthogonalLoop=1;jettySize=auto;html=1;exitX=1;exitY=0.5;exitDx=0;exitDy=0;entryX=0;entryY=0.5;entryDx=0;entryDy=0;endArrow=none;endFill=0;curved=0;" edge="1" parent="1" source="KZ7H_vDwbbuVYhdhCjJA-31" target="KZ7H_vDwbbuVYhdhCjJA-38">
          <mxGeometry relative="1" as="geometry" />
        </mxCell>
        <mxCell id="KZ7H_vDwbbuVYhdhCjJA-31" value="idProfesor" style="ellipse;whiteSpace=wrap;html=1;align=center;fontStyle=4;" vertex="1" parent="1">
          <mxGeometry x="110" y="370" width="100" height="40" as="geometry" />
        </mxCell>
        <mxCell id="KZ7H_vDwbbuVYhdhCjJA-41" style="edgeStyle=orthogonalEdgeStyle;rounded=1;orthogonalLoop=1;jettySize=auto;html=1;exitX=1;exitY=0.5;exitDx=0;exitDy=0;entryX=0;entryY=0.5;entryDx=0;entryDy=0;endArrow=none;endFill=0;curved=0;" edge="1" parent="1" source="KZ7H_vDwbbuVYhdhCjJA-32" target="KZ7H_vDwbbuVYhdhCjJA-38">
          <mxGeometry relative="1" as="geometry">
            <mxPoint x="190" y="520" as="targetPoint" />
          </mxGeometry>
        </mxCell>
        <mxCell id="KZ7H_vDwbbuVYhdhCjJA-32" value="numeroTelefono" style="ellipse;shape=doubleEllipse;margin=3;whiteSpace=wrap;html=1;align=center;" vertex="1" parent="1">
          <mxGeometry x="40" y="550" width="100" height="40" as="geometry" />
        </mxCell>
        <mxCell id="KZ7H_vDwbbuVYhdhCjJA-33" value="numeroExt" style="ellipse;whiteSpace=wrap;html=1;align=center;" vertex="1" parent="1">
          <mxGeometry x="110" y="660" width="100" height="40" as="geometry" />
        </mxCell>
        <mxCell id="KZ7H_vDwbbuVYhdhCjJA-46" style="edgeStyle=orthogonalEdgeStyle;rounded=1;orthogonalLoop=1;jettySize=auto;html=1;exitX=0.5;exitY=0;exitDx=0;exitDy=0;entryX=0.5;entryY=1;entryDx=0;entryDy=0;curved=0;endArrow=none;endFill=0;" edge="1" parent="1" source="KZ7H_vDwbbuVYhdhCjJA-34" target="KZ7H_vDwbbuVYhdhCjJA-37">
          <mxGeometry relative="1" as="geometry" />
        </mxCell>
        <mxCell id="KZ7H_vDwbbuVYhdhCjJA-34" value="calle" style="ellipse;whiteSpace=wrap;html=1;align=center;" vertex="1" parent="1">
          <mxGeometry x="160" y="730" width="100" height="40" as="geometry" />
        </mxCell>
        <mxCell id="KZ7H_vDwbbuVYhdhCjJA-47" style="edgeStyle=orthogonalEdgeStyle;rounded=1;orthogonalLoop=1;jettySize=auto;html=1;exitX=0.5;exitY=0;exitDx=0;exitDy=0;entryX=0.5;entryY=1;entryDx=0;entryDy=0;curved=0;endArrow=none;endFill=0;" edge="1" parent="1" source="KZ7H_vDwbbuVYhdhCjJA-35" target="KZ7H_vDwbbuVYhdhCjJA-37">
          <mxGeometry relative="1" as="geometry" />
        </mxCell>
        <mxCell id="KZ7H_vDwbbuVYhdhCjJA-35" value="colonia" style="ellipse;whiteSpace=wrap;html=1;align=center;" vertex="1" parent="1">
          <mxGeometry x="270" y="730" width="100" height="40" as="geometry" />
        </mxCell>
        <mxCell id="KZ7H_vDwbbuVYhdhCjJA-44" style="edgeStyle=orthogonalEdgeStyle;rounded=1;orthogonalLoop=1;jettySize=auto;html=1;exitX=0;exitY=0.5;exitDx=0;exitDy=0;entryX=0.5;entryY=1;entryDx=0;entryDy=0;curved=0;endArrow=none;endFill=0;" edge="1" parent="1" source="KZ7H_vDwbbuVYhdhCjJA-36" target="KZ7H_vDwbbuVYhdhCjJA-37">
          <mxGeometry relative="1" as="geometry">
            <mxPoint x="280" y="670" as="targetPoint" />
          </mxGeometry>
        </mxCell>
        <mxCell id="KZ7H_vDwbbuVYhdhCjJA-36" value="codigoPostal" style="ellipse;whiteSpace=wrap;html=1;align=center;" vertex="1" parent="1">
          <mxGeometry x="330" y="660" width="100" height="40" as="geometry" />
        </mxCell>
        <mxCell id="KZ7H_vDwbbuVYhdhCjJA-43" style="edgeStyle=orthogonalEdgeStyle;rounded=1;orthogonalLoop=1;jettySize=auto;html=1;exitX=0.5;exitY=1;exitDx=0;exitDy=0;entryX=1;entryY=0.5;entryDx=0;entryDy=0;curved=0;endArrow=none;endFill=0;" edge="1" parent="1" source="KZ7H_vDwbbuVYhdhCjJA-37" target="KZ7H_vDwbbuVYhdhCjJA-33">
          <mxGeometry relative="1" as="geometry" />
        </mxCell>
        <mxCell id="KZ7H_vDwbbuVYhdhCjJA-37" value="direccion" style="ellipse;whiteSpace=wrap;html=1;align=center;" vertex="1" parent="1">
          <mxGeometry x="210" y="590" width="100" height="40" as="geometry" />
        </mxCell>
        <mxCell id="KZ7H_vDwbbuVYhdhCjJA-42" style="edgeStyle=orthogonalEdgeStyle;rounded=1;orthogonalLoop=1;jettySize=auto;html=1;exitX=0;exitY=0.5;exitDx=0;exitDy=0;entryX=0.5;entryY=0;entryDx=0;entryDy=0;curved=0;endArrow=none;endFill=0;" edge="1" parent="1" source="KZ7H_vDwbbuVYhdhCjJA-38" target="KZ7H_vDwbbuVYhdhCjJA-37">
          <mxGeometry relative="1" as="geometry" />
        </mxCell>
        <mxCell id="KZ7H_vDwbbuVYhdhCjJA-38" value="Profesor" style="ellipse;whiteSpace=wrap;html=1;align=center;" vertex="1" parent="1">
          <mxGeometry x="190" y="500" width="100" height="40" as="geometry" />
        </mxCell>
      </root>
    </mxGraphModel>
  </diagram>
</mxfile>
